<svg id="visual" viewBox="0 0 960 250" width="960" height="250"
    xmlns="http://www.w3.org/2000/svg"
    xmlns:xlink="http://www.w3.org/1999/xlink" version="1.1">
    <rect x="0" y="0" width="960" height="250" fill="transparent"></rect>
    <path d="M0 94L17.8 93.8C35.7 93.7 71.3 93.3 106.8 86.5C142.3 79.7 177.7 66.3 213.2 64.3C248.7 62.3 284.3 71.7 320 71.7C355.7 71.7 391.3 62.3 426.8 63.8C462.3 65.3 497.7 77.7 533.2 80.5C568.7 83.3 604.3 76.7 640 70.3C675.7 64 711.3 58 746.8 65.5C782.3 73 817.7 94 853.2 105.2C888.7 116.3 924.3 117.7 942.2 118.3L960 119L960 251L942.2 251C924.3 251 888.7 251 853.2 251C817.7 251 782.3 251 746.8 251C711.3 251 675.7 251 640 251C604.3 251 568.7 251 533.2 251C497.7 251 462.3 251 426.8 251C391.3 251 355.7 251 320 251C284.3 251 248.7 251 213.2 251C177.7 251 142.3 251 106.8 251C71.3 251 35.7 251 17.8 251L0 251Z" fill="#6442ab"></path>
    <path d="M0 124L17.8 124.5C35.7 125 71.3 126 106.8 117.5C142.3 109 177.7 91 213.2 91C248.7 91 284.3 109 320 116C355.7 123 391.3 119 426.8 115C462.3 111 497.7 107 533.2 104.3C568.7 101.7 604.3 100.3 640 105.7C675.7 111 711.3 123 746.8 120.8C782.3 118.7 817.7 102.3 853.2 93.2C888.7 84 924.3 82 942.2 81L960 80L960 251L942.2 251C924.3 251 888.7 251 853.2 251C817.7 251 782.3 251 746.8 251C711.3 251 675.7 251 640 251C604.3 251 568.7 251 533.2 251C497.7 251 462.3 251 426.8 251C391.3 251 355.7 251 320 251C284.3 251 248.7 251 213.2 251C177.7 251 142.3 251 106.8 251C71.3 251 35.7 251 17.8 251L0 251Z" fill="#5e3ca6"></path>
    <path d="M0 144L17.8 138.3C35.7 132.7 71.3 121.3 106.8 117.8C142.3 114.3 177.7 118.7 213.2 120.5C248.7 122.3 284.3 121.7 320 123.2C355.7 124.7 391.3 128.3 426.8 127.8C462.3 127.3 497.7 122.7 533.2 121.5C568.7 120.3 604.3 122.7 640 122.5C675.7 122.3 711.3 119.7 746.8 121C782.3 122.3 817.7 127.7 853.2 135C888.7 142.3 924.3 151.7 942.2 156.3L960 161L960 251L942.2 251C924.3 251 888.7 251 853.2 251C817.7 251 782.3 251 746.8 251C711.3 251 675.7 251 640 251C604.3 251 568.7 251 533.2 251C497.7 251 462.3 251 426.8 251C391.3 251 355.7 251 320 251C284.3 251 248.7 251 213.2 251C177.7 251 142.3 251 106.8 251C71.3 251 35.7 251 17.8 251L0 251Z" fill="#5835a1"></path>
    <path d="M0 152L17.8 154C35.7 156 71.3 160 106.8 161.5C142.3 163 177.7 162 213.2 165.7C248.7 169.3 284.3 177.7 320 181.7C355.7 185.7 391.3 185.3 426.8 183.7C462.3 182 497.7 179 533.2 171C568.7 163 604.3 150 640 148.3C675.7 146.7 711.3 156.3 746.8 159.8C782.3 163.3 817.7 160.7 853.2 158.2C888.7 155.7 924.3 153.3 942.2 152.2L960 151L960 251L942.2 251C924.3 251 888.7 251 853.2 251C817.7 251 782.3 251 746.8 251C711.3 251 675.7 251 640 251C604.3 251 568.7 251 533.2 251C497.7 251 462.3 251 426.8 251C391.3 251 355.7 251 320 251C284.3 251 248.7 251 213.2 251C177.7 251 142.3 251 106.8 251C71.3 251 35.7 251 17.8 251L0 251Z" fill="#522f9d"></path>
    <path d="M0 198L17.8 196.3C35.7 194.7 71.3 191.3 106.8 187.3C142.3 183.3 177.7 178.7 213.2 179.8C248.7 181 284.3 188 320 187.3C355.7 186.7 391.3 178.3 426.8 180.2C462.3 182 497.7 194 533.2 200.2C568.7 206.3 604.3 206.7 640 201.5C675.7 196.3 711.3 185.7 746.8 184.2C782.3 182.7 817.7 190.3 853.2 195.8C888.7 201.3 924.3 204.7 942.2 206.3L960 208L960 251L942.2 251C924.3 251 888.7 251 853.2 251C817.7 251 782.3 251 746.8 251C711.3 251 675.7 251 640 251C604.3 251 568.7 251 533.2 251C497.7 251 462.3 251 426.8 251C391.3 251 355.7 251 320 251C284.3 251 248.7 251 213.2 251C177.7 251 142.3 251 106.8 251C71.3 251 35.7 251 17.8 251L0 251Z" fill="#4c2998"></path>
    <path d="M0 230L17.8 230.2C35.7 230.3 71.3 230.7 106.8 226C142.3 221.3 177.7 211.7 213.2 209.3C248.7 207 284.3 212 320 211C355.7 210 391.3 203 426.8 204.2C462.3 205.3 497.7 214.7 533.2 219.8C568.7 225 604.3 226 640 226C675.7 226 711.3 225 746.8 223.5C782.3 222 817.7 220 853.2 218.5C888.7 217 924.3 216 942.2 215.5L960 215L960 251L942.2 251C924.3 251 888.7 251 853.2 251C817.7 251 782.3 251 746.8 251C711.3 251 675.7 251 640 251C604.3 251 568.7 251 533.2 251C497.7 251 462.3 251 426.8 251C391.3 251 355.7 251 320 251C284.3 251 248.7 251 213.2 251C177.7 251 142.3 251 106.8 251C71.3 251 35.7 251 17.8 251L0 251Z" fill="#462293"></path>
</svg>