<?xml version="1.0" encoding="UTF-8"?>
<svg xmlns="http://www.w3.org/2000/svg" xmlns:xlink="http://www.w3.org/1999/xlink" width="50pt" height="50pt" viewBox="0 0 50 50" version="1.1">
<g id="surface1">
<path style=" stroke:none;fill-rule:nonzero;fill:rgb(98.039216%,15.686275%,38.431373%);fill-opacity:1;" d="M 49.941406 3.734375 C 49.832031 1.746094 48.253906 0.167969 46.265625 0.0585938 C 42.257812 -0.160156 34.417969 0.0546875 26.917969 3.929688 C 23.097656 5.910156 19.054688 9.261719 15.828125 13.128906 C 15.785156 13.175781 15.75 13.226562 15.707031 13.273438 L 8.386719 13.839844 C 7.179688 13.929688 6.109375 14.5625 5.441406 15.570312 L 0.445312 23.128906 C -0.0585938 23.890625 -0.140625 24.847656 0.230469 25.6875 C 0.601562 26.523438 1.363281 27.109375 2.269531 27.25 L 8.4375 28.203125 C 8.417969 28.324219 8.394531 28.445312 8.375 28.566406 C 8.167969 29.792969 8.574219 31.054688 9.464844 31.945312 L 18.054688 40.535156 C 18.792969 41.273438 19.785156 41.679688 20.804688 41.679688 C 21.015625 41.679688 21.226562 41.660156 21.433594 41.625 C 21.554688 41.605469 21.675781 41.582031 21.796875 41.5625 L 22.75 47.730469 C 22.890625 48.636719 23.476562 49.398438 24.3125 49.769531 C 24.660156 49.925781 25.03125 50 25.398438 50 C 25.914062 50 26.425781 49.851562 26.871094 49.554688 L 34.429688 44.558594 C 35.4375 43.890625 36.070312 42.820312 36.160156 41.613281 L 36.726562 34.292969 C 36.773438 34.253906 36.824219 34.214844 36.871094 34.171875 C 40.738281 30.945312 44.089844 26.902344 46.070312 23.082031 C 49.949219 15.582031 50.160156 7.738281 49.941406 3.734375 Z M 32.8125 42.113281 L 25.585938 46.894531 L 24.652344 40.882812 C 27.707031 39.984375 30.730469 38.546875 33.609375 36.617188 L 33.242188 41.386719 C 33.21875 41.683594 33.0625 41.949219 32.8125 42.113281 Z M 20.128906 38.464844 L 11.535156 29.871094 C 11.316406 29.652344 11.214844 29.34375 11.265625 29.046875 C 11.519531 27.519531 11.917969 26.066406 12.40625 24.695312 L 25.300781 37.589844 C 23.65625 38.179688 22.183594 38.53125 20.953125 38.734375 C 20.65625 38.785156 20.347656 38.683594 20.128906 38.464844 Z M 8.613281 16.757812 L 13.382812 16.390625 C 11.453125 19.269531 10.015625 22.292969 9.117188 25.347656 L 3.105469 24.414062 L 7.886719 17.1875 C 8.050781 16.9375 8.316406 16.78125 8.613281 16.757812 Z M 34.996094 31.921875 C 32.628906 33.898438 30.332031 35.324219 28.214844 36.359375 L 13.640625 21.785156 C 14.996094 19.023438 16.644531 16.71875 18.078125 15.003906 C 21.0625 11.425781 24.777344 8.339844 28.265625 6.535156 C 35.148438 2.972656 42.398438 2.78125 46.109375 2.984375 C 46.597656 3.011719 46.988281 3.402344 47.015625 3.890625 C 47.21875 7.601562 47.027344 14.851562 43.464844 21.734375 C 41.660156 25.222656 38.574219 28.9375 34.996094 31.921875 Z M 34.996094 31.921875 "/>
<path style=" stroke:none;fill-rule:nonzero;fill:rgb(98.039216%,15.686275%,38.431373%);fill-opacity:1;" d="M 34.25 23.070312 C 36.125 23.070312 38 22.355469 39.429688 20.929688 C 40.8125 19.546875 41.574219 17.707031 41.574219 15.75 C 41.574219 13.792969 40.8125 11.953125 39.429688 10.570312 C 36.574219 7.714844 31.925781 7.714844 29.070312 10.570312 C 27.6875 11.953125 26.925781 13.792969 26.925781 15.75 C 26.925781 17.707031 27.6875 19.546875 29.070312 20.929688 C 30.5 22.355469 32.375 23.070312 34.25 23.070312 Z M 31.144531 12.644531 C 32 11.785156 33.125 11.359375 34.25 11.359375 C 35.375 11.359375 36.5 11.785156 37.355469 12.644531 C 38.1875 13.472656 38.644531 14.578125 38.644531 15.75 C 38.644531 16.921875 38.1875 18.027344 37.355469 18.855469 C 35.644531 20.570312 32.855469 20.570312 31.140625 18.855469 C 30.3125 18.027344 29.855469 16.921875 29.855469 15.75 C 29.855469 14.578125 30.3125 13.472656 31.144531 12.644531 Z M 31.144531 12.644531 "/>
<path style=" stroke:none;fill-rule:nonzero;fill:rgb(98.039216%,15.686275%,38.431373%);fill-opacity:1;" d="M 1.496094 41.203125 C 1.867188 41.203125 2.242188 41.0625 2.53125 40.777344 L 7.3125 35.992188 C 7.882812 35.421875 7.882812 34.492188 7.3125 33.921875 C 6.742188 33.347656 5.8125 33.347656 5.242188 33.921875 L 0.457031 38.703125 C -0.113281 39.277344 -0.113281 40.203125 0.457031 40.777344 C 0.746094 41.0625 1.121094 41.203125 1.496094 41.203125 Z M 1.496094 41.203125 "/>
<path style=" stroke:none;fill-rule:nonzero;fill:rgb(98.039216%,15.686275%,38.431373%);fill-opacity:1;" d="M 11.695312 38.304688 C 11.125 37.734375 10.195312 37.734375 9.625 38.304688 L 0.429688 47.5 C -0.144531 48.070312 -0.144531 49 0.429688 49.570312 C 0.714844 49.855469 1.089844 50 1.464844 50 C 1.839844 50 2.214844 49.855469 2.5 49.570312 L 11.695312 40.375 C 12.265625 39.804688 12.265625 38.875 11.695312 38.304688 Z M 11.695312 38.304688 "/>
<path style=" stroke:none;fill-rule:nonzero;fill:rgb(98.039216%,15.686275%,38.431373%);fill-opacity:1;" d="M 14.007812 42.6875 L 9.222656 47.46875 C 8.652344 48.042969 8.652344 48.96875 9.222656 49.542969 C 9.511719 49.828125 9.886719 49.972656 10.261719 49.972656 C 10.632812 49.972656 11.007812 49.828125 11.296875 49.542969 L 16.078125 44.757812 C 16.648438 44.1875 16.648438 43.257812 16.078125 42.6875 C 15.507812 42.117188 14.578125 42.117188 14.007812 42.6875 Z M 14.007812 42.6875 "/>
</g>
</svg>
